<svg width="400" height="118" viewBox="0 0 400 118" fill="none" xmlns="http://www.w3.org/2000/svg">
<g clip-path="url(#clip0_105_2)">
<path d="M373.515 53.1776H353.054V0H373.307C378.777 0 383.503 1.06459 387.485 3.19378C391.483 5.30565 394.565 8.35228 396.728 12.3337C398.91 16.2978 400 21.0495 400 26.5888C400 32.1282 398.918 36.8885 396.754 40.8699C394.591 44.834 391.527 47.8806 387.563 50.0098C383.598 52.1217 378.916 53.1776 373.515 53.1776ZM367.491 40.9218H372.996C375.627 40.9218 377.869 40.4977 379.721 39.6495C381.59 38.8013 383.01 37.3386 383.979 35.2613C384.966 33.1841 385.459 30.2932 385.459 26.5888C385.459 22.8844 384.957 19.9935 383.953 17.9163C382.967 15.839 381.513 14.3763 379.591 13.5281C377.687 12.6799 375.35 12.2558 372.58 12.2558H367.491V40.9218Z" fill="white"/>
<path d="M307.569 53.1776V0H345.894V11.6326H322.006V20.7725H343.921V32.4051H322.006V41.545H345.79V53.1776H307.569Z" fill="white"/>
<path d="M258.728 53.1776V0H281.681C285.628 0 289.081 0.718383 292.041 2.15515C295.002 3.59191 297.304 5.66051 298.948 8.36094C300.593 11.0614 301.415 14.2984 301.415 18.0721C301.415 21.8804 300.567 25.0915 298.87 27.7053C297.191 30.3192 294.828 32.2926 291.782 33.6255C288.752 34.9584 285.213 35.6249 281.162 35.6249H267.452V24.4077H278.254C279.95 24.4077 281.396 24.2 282.59 23.7845C283.802 23.3518 284.728 22.668 285.368 21.7332C286.026 20.7985 286.355 19.5781 286.355 18.0721C286.355 16.5488 286.026 15.3111 285.368 14.359C284.728 13.3896 283.802 12.6799 282.59 12.2298C281.396 11.7624 279.95 11.5287 278.254 11.5287H273.164V53.1776H258.728ZM289.886 28.7699L303.181 53.1776H287.497L274.515 28.7699H289.886Z" fill="white"/>
<path d="M213.242 53.1776V0H251.567V11.6326H227.679V20.7725H249.594V32.4051H227.679V41.545H251.464V53.1776H213.242Z" fill="white"/>
<path d="M165.258 53.1776V0H188.211C192.158 0 195.611 0.77897 198.571 2.33691C201.532 3.89485 203.834 6.08461 205.478 8.90622C207.123 11.7278 207.945 15.0255 207.945 18.7991C207.945 22.6074 207.097 25.9051 205.4 28.692C203.721 31.479 201.358 33.6255 198.312 35.1315C195.283 36.6375 191.743 37.3905 187.692 37.3905H173.982V26.1734H184.784C186.48 26.1734 187.926 25.8791 189.12 25.2905C190.332 24.6847 191.258 23.8278 191.898 22.7199C192.556 21.6121 192.885 20.3051 192.885 18.7991C192.885 17.2758 192.556 15.9775 191.898 14.9043C191.258 13.8137 190.332 12.9828 189.12 12.4116C187.926 11.823 186.48 11.5287 184.784 11.5287H179.694V53.1776H165.258Z" fill="white"/>
<path d="M97.1367 0H115.105L127.465 30.1201H128.088L140.447 0H158.416V53.1776H144.29V22.4343H143.875L132.035 52.7622H123.518L111.677 22.2266H111.262V53.1776H97.1367V0Z" fill="white"/>
<path d="M51.6514 53.1776V0H89.9767V11.6326H66.0883V20.7725H88.0033V32.4051H66.0883V41.545H89.8728V53.1776H51.6514Z" fill="white"/>
<path d="M0 11.6326V0H46.2188V11.6326H30.224V53.1776H15.9948V11.6326H0Z" fill="white"/>
<path d="M351.982 117.256V63.731H366.429V84.639H385.553V63.731H400V117.256H385.553V96.3476H366.429V117.256H351.982Z" fill="white"/>
<path d="M300.293 75.4395V63.731H346.544V75.4395H330.538V117.256H316.299V75.4395H300.293Z" fill="white"/>
<path d="M282.144 81.3991C281.919 80.4757 281.564 79.6655 281.079 78.9686C280.593 78.2542 279.987 77.6531 279.26 77.1652C278.549 76.66 277.718 76.2854 276.765 76.0414C275.83 75.7801 274.799 75.6494 273.673 75.6494C271.248 75.6494 269.178 76.2331 267.463 77.4004C265.765 78.5678 264.466 80.2492 263.566 82.4445C262.682 84.6399 262.24 87.2882 262.24 90.3896C262.24 93.5258 262.665 96.209 263.514 98.4392C264.362 100.669 265.627 102.377 267.307 103.562C268.987 104.746 271.075 105.339 273.569 105.339C275.769 105.339 277.597 105.017 279.052 104.372C280.524 103.727 281.624 102.812 282.352 101.628C283.079 100.443 283.443 99.049 283.443 97.4461L285.937 97.7074H273.777V87.3579H297.37V94.7803C297.37 99.6589 296.34 103.832 294.278 107.299C292.234 110.749 289.411 113.397 285.808 115.244C282.222 117.074 278.108 117.988 273.465 117.988C268.286 117.988 263.739 116.882 259.824 114.669C255.909 112.456 252.852 109.303 250.652 105.208C248.469 101.114 247.378 96.2439 247.378 90.5987C247.378 86.1731 248.045 82.2529 249.378 78.8379C250.73 75.4229 252.6 72.5393 254.991 70.1872C257.381 67.8176 260.144 66.0317 263.28 64.8295C266.415 63.6098 269.776 63 273.361 63C276.514 63 279.442 63.453 282.144 64.359C284.863 65.2476 287.263 66.5195 289.341 68.1748C291.437 69.8126 293.126 71.7553 294.408 74.0029C295.69 76.2505 296.47 78.7159 296.747 81.3991H282.144Z" fill="white"/>
<path d="M240.752 63.731V117.256H228.696L209.468 89.1343H209.156V117.256H194.709V63.731H206.974L225.89 91.7478H226.305V63.731H240.752Z" fill="white"/>
<path d="M149.192 117.256V63.731H187.544V75.4395H163.639V84.639H185.57V96.3476H163.639V105.547H187.44V117.256H149.192Z" fill="white"/>
<path d="M100.317 117.256V63.731H123.287C127.236 63.731 130.692 64.454 133.654 65.9002C136.616 67.3463 138.92 69.4284 140.566 72.1465C142.212 74.8645 143.034 78.1227 143.034 81.921C143.034 85.7541 142.186 88.9862 140.488 91.6171C138.808 94.2481 136.443 96.2343 133.394 97.5759C130.363 98.9175 126.82 99.5883 122.767 99.5883H109.048V88.298H119.857C121.554 88.298 123.001 88.0889 124.196 87.6707C125.409 87.2351 126.335 86.5469 126.976 85.606C127.635 84.6652 127.964 83.4368 127.964 81.921C127.964 80.3877 127.635 79.142 126.976 78.1837C126.335 77.208 125.409 76.4936 124.196 76.0406C123.001 75.5702 121.554 75.3349 119.857 75.3349H114.764V117.256H100.317ZM131.498 92.6887L144.801 117.256H129.107L116.115 92.6887H131.498Z" fill="white"/>
<path d="M48.6282 75.4395V63.731H94.8791V75.4395H78.8732V117.256H64.6341V75.4395H48.6282Z" fill="white"/>
<path d="M30.0371 80.4583C29.8986 78.7159 29.249 77.3569 28.0884 76.3812C26.9451 75.4055 25.2042 74.9176 22.8656 74.9176C21.3759 74.9176 20.1547 75.1006 19.2019 75.4664C18.2665 75.8149 17.5736 76.2941 17.1233 76.9039C16.6729 77.5137 16.439 78.2106 16.4217 78.9947C16.387 79.6394 16.4996 80.223 16.7595 80.7457C17.0366 81.251 17.4697 81.7127 18.0587 82.1309C18.6476 82.5316 19.4012 82.8975 20.3192 83.2286C21.2373 83.5596 22.3287 83.8558 23.5932 84.1172L27.9584 85.058C30.9033 85.6853 33.4237 86.5129 35.5197 87.5409C37.6157 88.5689 39.3306 89.7798 40.6645 91.1737C41.9983 92.5501 42.977 94.1008 43.6006 95.8257C44.2416 97.5506 44.5707 99.4323 44.588 101.471C44.5707 104.99 43.6959 107.97 41.9637 110.409C40.2314 112.848 37.7543 114.704 34.5323 115.976C31.3277 117.248 27.4734 117.884 22.9696 117.884C18.3445 117.884 14.3083 117.196 10.8612 115.819C7.43133 114.443 4.76368 112.326 2.85821 109.468C0.970058 106.593 0.0173224 102.917 0 98.4392H13.7194C13.806 100.077 14.2131 101.453 14.9406 102.569C15.6682 103.684 16.6902 104.529 18.0067 105.104C19.3405 105.679 20.9255 105.966 22.7617 105.966C24.3034 105.966 25.5939 105.774 26.6333 105.391C27.6726 105.008 28.4608 104.476 28.9978 103.797C29.5348 103.117 29.812 102.342 29.8293 101.471C29.812 100.652 29.5435 99.9376 29.0238 99.3278C28.5214 98.7006 27.69 98.143 26.5293 97.6552C25.3687 97.1499 23.8011 96.6795 21.8263 96.2439L16.5256 95.0939C11.8139 94.0659 8.09825 92.3497 5.37862 89.9453C2.67632 87.5234 1.33383 84.2217 1.35115 80.0401C1.33383 76.6425 2.2346 73.6718 4.05346 71.128C5.88964 68.5668 8.42738 66.5718 11.6667 65.1431C14.9233 63.7144 18.6563 63 22.8656 63C27.1616 63 30.8773 63.7231 34.0126 65.1692C37.148 66.6154 39.5645 68.6539 41.2621 71.2848C42.977 73.8983 43.8431 76.9562 43.8605 80.4583H30.0371Z" fill="white"/>
</g>
<defs>
<clipPath id="clip0_105_2">
<rect width="400" height="118" fill="white"/>
</clipPath>
</defs>
</svg>
